<svg version="1.2" xmlns="http://www.w3.org/2000/svg" viewBox="0 0 3000 550" width="3000" height="550">
	<style>
		.s0 { fill: #f7bf39 } 
		.s1 { fill: #000000 } 
		.s2 { fill: #52585f } 
	</style>
	<g id="Group 1">
		<path id="Shape 38 copy 11" fill-rule="evenodd" class="s0" d="m73.57 549.49c0 0 15.03-437.15 475.16-469.5v81.57c0 0-392.52 63.31-372.78 387.93z"/>
		<path id="Shape 36 copy 8" fill-rule="evenodd" class="s1" d="m545.93 0.81c3.47-1.86-0.26 3.47 3.2 3.2 0 33.59 0 67.18 0 102.37 1.87 3.47-3.46-0.27-3.2 2.93-33.06 1.28-66.13 3.19-101.08 12.68-26.76 5.93-61.76 18.92-81.17 28.07-73.48 34.66-125.45 80.62-171.04 140.28-21.66 30.61-39.08 59.53-56.48 104.96-17.17 46.46-28.2 100.71-27.03 153.8-35.73 0.84-71.47 0.01-108.81-0.19-1.61-70.01 16.09-150.31 43.26-214.13 25.52-59.15 53.07-99.33 86.35-142.03q0.38-0.43 0.8-0.8c0.5-0.42 0.93-0.7 1.36-1.26q0.13-0.16 0.24-0.34 17.59-22.28 38.4-41.58c14.23-13.2 29.45-25.21 45.6-35.99 2.93 1.33 1.07-2.13 0-3.2-35.73 0-71.47 0-108.87 0.07-27.46-0.31-55.67 0.12-83.47-0.72 0.42-15.97 6.6-89.94 84.46-108.12 145.35 0 290.9 0 437.48 0z"/>
		<path id="Shape 37 copy 11" fill-rule="evenodd" class="s2" d="m517.13 139.97c10.14 0 20.27 0 31.65 0.36 0.88 32.7 0.01 67.16 0.35 102.01 0 71.71 0 143.43 0 215.7-12.53 70.74-63.2 87.64-92.61 91.4q-8.04 0-16.19 0c0-93.31 0-186.61-1.79-280.58-56.75 23.64-94.04 53.84-128.1 96.3-16.1 20.81-28.88 41.01-42.21 73.82-13.58 32.94-20.18 72.05-20.24 110.12-34.89 0.84-71.45 0.01-108.34-0.26-2.4-55.95 13.37-122.19 37.55-173.26 30.02-63.04 70.94-111.17 122.03-151.4 24.65-18.69 53.83-36.94 86.99-51.64 38.59-15.36 87.33-29.94 130.91-32.57z"/>
		<path id="Shape 1" fill-rule="evenodd" class="s1" d="m1742.78 336.07h-254.23c0.23 32.95 3.52 62.78 23.26 88.96 8.16 10.82 19.86 18.48 32.73 22.67 29.21 9.52 58.59 9.35 86.91-2.32 26.25-10.81 39.01-34.16 42.81-62.86 21.01 1.76 41.49 0.98 64.53 0.98-2.64 24.05-13.72 42.27-29.59 57.24-29.05 27.4-65.4 38.9-104.07 42.22-37.24 3.19-74.58 2.71-110.37-10.92-28.43-10.83-52.84-27.04-70.07-52.83-1.13-1.69-2.68-3.1-5.84-6.69 0 23.16 0 43.77 0 65.29h-87.77v-44.03c-7.23 7.82-12.34 14.26-18.36 19.69-46.92 42.35-134.87 42.12-181.61-0.77-20.02-18.38-29.33-42.33-29.76-69.12-0.74-45.37-0.77-90.76-0.19-136.14 0.15-11.43-4.11-14.4-14.43-14.79-33.07-1.24-57.48 11.9-72.57 41.76-11.22 22.21-17.03 45.72-17.09 70.6-0.09 39.15-0.05 78.31-0.07 117.46-0.01 4.8 0 9.6 0 15.33h-86.8v-287.66h86.26c0 17.59 0 34.77 0 52.3 1.97-0.58 3.16-0.58 3.37-1.04 21.29-45.6 58.18-57.18 108.41-57.18 29.44 0 40.53 0.4 60.76 0.4 6.43 0 11.7 0.15 19.73 0.56 0 5.52 0 10.29 0 15.06 0 56.5-0.02 113.01 0.01 169.51 0.01 7.57 0.01 15.14 0.46 22.68 1.86 31.43 16.27 52.08 41 59.08 29.95 8.46 63.18-2.2 79.95-25.65 13.92-19.46 20.24-41.43 20.38-65.09 0.31-51.61 0.19-103.22 0.25-154.83 0-4.83 0-9.65 0-15.76h87.38c0 21.49 0 42.27 0 63.83 2.08-0.58 3.66-0.53 4.14-1.23 27.7-40.54 67.45-60.47 114.83-66.84 35.98-4.84 71.8-3.85 106.83 6.52 65.5 19.39 102.79 73.08 98.82 143.61zm-85.01-31.76c-2.67-53.81-32.18-88.41-76.27-90.19-49.81-2.02-81.91 29.65-90.1 90.19zm-621.27-202.9h-170.33v376.72h-100.7v-376.35h-171.87v-35.29h442.9z"/>
		<path id="Ellipse 1" fill-rule="evenodd" class="s1" d="m2087.2 66.17h93.56v412.5c-21.4 0-42.19 0.71-62.86-0.54-4.61-0.29-9.55-6.92-13.07-11.59-75.65-100.5-151.12-201.13-226.63-301.73-1.81-2.4-3.72-4.73-7.94-10.08 0 109.79 0 216.12 0 323.23h-93.93v-412.54c23.96 0 98.49-0.43 98.49-0.43l15.91 20.82c0 0 123.78 163.87 185.89 245.63 2.38 3.13 4.94 6.12 7.41 9.18q1.59-0.47 3.17-0.94c0-90.93 0-181.87 0-273.51zm882.57 376.85l-5.08 34.29-21.33 3.37c0 0-42.87 3.43-64.27 3.04-42.23-0.78-76.4-35.13-77.03-77.4-0.85-56.71-0.31-113.45-0.36-170.18 0-4.82 0-9.65 0-15.45h-44.29c7.6 15.26 15.25 30.64 24.31 48.86-23.71 0-42.72 0.27-61.72-0.29-2.87-0.09-7.27-3.52-8.21-6.33-11.63-34.82-38.74-47.14-72.01-48.41-15.72-0.6-31.9 1.73-47.32 5.2-17.13 3.86-25.11 15.34-25.62 31.35-0.54 16.52 5.93 27.06 24.17 32.08 26.87 7.38 54.79 11.1 81.41 19.18 26.51 8.05 54.19 15.95 77.45 30.29 51.43 31.72 47.01 100.46-6.39 129.1-24.25 13.02-50.73 19.62-77.92 20.43-31.41 0.94-63.01 0.7-94.3-1.83-26.53-2.16-50.12-14.17-71.08-32.25-27.31 19.71-57.75 31.29-90.94 34.34-46.11 4.24-92.11 3.73-135.63-19.59-54.05-28.97-82.18-90.55-72.56-151.16 11.49-72.39 61-117.68 140.03-126.4 44.18-4.87 87.86-2.54 128.72 17.77 9.05 4.5 17.41 10.42 26.09 15.67 61.98-46.93 170.83-48.06 256.15-1.68 11.34-27.65 10.66-24.85 10.66-24.85l41.52-1.9 16.96-72.21 2.51-10.72c0 0.05 65.49 0.26 65.49 0.22v81.67h79.83c-2.51 8.44-6.34 21.87-6.34 21.87l-2.13 8.73c0 0-49.79-0.12-71.06-0.12 0 5.86 0 10.19 0 14.52 0 54.73-0.1 109.47 0.04 164.2 0.11 48.86 24.89 65.47 70.96 47.82 2.8-1.07 9.29-3.23 9.29-3.23zm-687.51-138.47q87.4 0 174.81 0c-4.65-38.91-17.37-64.99-38.07-78.81-21.68-14.48-44.47-12.21-52.37-11.45-38.33 3.67-70.09 32.69-80.45 65.44-3.23 10.2-3.86 19.11-3.92 24.82zm248.81 32.23c-68.18-0.89-105.29-0.02-228.91-0.45-10.02-0.04-18.08-0.15-22.58-0.22-0.71 10.91-0.97 37.88 15.3 65.52 4.13 7.02 14.72 24.53 36.15 37.34 8.26 4.94 41.1 22.9 80.45 10.26 43-13.81 58.7-52.89 60.65-58l5-7.35c0 0 41.8-0.34 61.96-0.34 0.68 6.17 1.05 10.11 1.56 14.04 3.86 29.39 21.08 49.8 50.23 54.21 17.65 2.67 36.29 1.82 54.09-0.53 11.77-1.55 24.11-6.7 33.94-13.5 23.14-16.01 22.83-46.62-0.1-62.55-8.92-6.2-19.24-11.48-29.7-14.12-23.58-5.97-47.65-9.99-71.5-14.9-15.53-3.19-30.99-9.21-46.54-9.41z"/>
	</g>
</svg>